<?xml version="1.0" encoding="UTF-8"?>
<svg id="Layer_2" data-name="Layer 2" xmlns="http://www.w3.org/2000/svg" viewBox="0 0 1009.33 276.06">
  <defs>
    <style>
      .cls-1 {
        fill: #ffffff;
      }
    </style>
  </defs>
  <g id="Layer_1-2" data-name="Layer 1">
    <g>
      <g>
        <path class="cls-1" d="M345.23,218.26c3.15,3.18,4.72,7.35,4.72,12.53s-1.6,9.24-4.81,12.36c-3.21,3.12-7.43,4.68-12.66,4.68h-17.21c-.23,0-.35.12-.35.35v26.3c0,.59-.29.88-.88.88h-4.5c-.59,0-.88-.29-.88-.88v-60.1c0-.59.29-.88.88-.88h23.21c5.18,0,9.34,1.59,12.49,4.77ZM340.51,239.4c2.17-2.15,3.26-4.99,3.26-8.52s-1.09-6.47-3.26-8.65c-2.18-2.17-5-3.26-8.47-3.26h-16.77c-.23,0-.35.12-.35.35v22.94c0,.23.12.35.35.35h16.77c3.47,0,6.29-1.07,8.47-3.22Z"/>
        <path class="cls-1" d="M420.28,274.74l-12.97-27.36c-.06-.18-.18-.26-.35-.26h-15c-.24,0-.35.12-.35.35v27c0,.59-.29.88-.88.88h-4.5c-.59,0-.88-.29-.88-.88v-60.01c0-.59.29-.88.88-.88h22.86c5.06,0,9.15,1.57,12.27,4.72,3.12,3.15,4.68,7.25,4.68,12.31,0,4.12-1.12,7.62-3.35,10.5-2.24,2.88-5.27,4.74-9.09,5.56-.24.12-.3.26-.18.44l13.24,27.18c.06.12.09.26.09.44,0,.41-.23.62-.7.62h-4.68c-.53,0-.88-.2-1.06-.62ZM391.6,219.41v22.33c0,.23.12.35.35.35h16.41c3.41,0,6.18-1.06,8.29-3.18,2.12-2.12,3.18-4.88,3.18-8.29s-1.06-6.19-3.18-8.34c-2.12-2.15-4.88-3.22-8.29-3.22h-16.41c-.24,0-.35.12-.35.35Z"/>
        <path class="cls-1" d="M471.2,273.5c-3.18-1.71-5.64-4.1-7.37-7.19-1.73-3.09-2.6-6.66-2.6-10.72v-22.24c0-4.06.87-7.63,2.6-10.72s4.19-5.49,7.37-7.19c3.18-1.7,6.85-2.56,11.03-2.56s7.87.85,11.08,2.56c3.21,1.71,5.68,4.1,7.41,7.19,1.73,3.09,2.6,6.66,2.6,10.72v22.24c0,4.06-.87,7.63-2.6,10.72-1.74,3.09-4.21,5.49-7.41,7.19-3.21,1.71-6.9,2.56-11.08,2.56s-7.85-.85-11.03-2.56ZM493,266.62c2.71-2.71,4.06-6.3,4.06-10.77v-22.59c0-4.47-1.35-8.07-4.06-10.81-2.71-2.74-6.3-4.1-10.77-4.1s-7.97,1.37-10.68,4.1c-2.71,2.74-4.06,6.34-4.06,10.81v22.59c0,4.47,1.35,8.06,4.06,10.77,2.71,2.71,6.27,4.06,10.68,4.06s8.06-1.35,10.77-4.06Z"/>
        <path class="cls-1" d="M577.85,218.26c3.15,3.18,4.72,7.35,4.72,12.53s-1.6,9.24-4.81,12.36c-3.21,3.12-7.43,4.68-12.66,4.68h-17.21c-.23,0-.35.12-.35.35v26.3c0,.59-.29.88-.88.88h-4.5c-.59,0-.88-.29-.88-.88v-60.1c0-.59.29-.88.88-.88h23.21c5.18,0,9.34,1.59,12.49,4.77ZM573.13,239.4c2.17-2.15,3.26-4.99,3.26-8.52s-1.09-6.47-3.26-8.65c-2.18-2.17-5-3.26-8.47-3.26h-16.77c-.23,0-.35.12-.35.35v22.94c0,.23.12.35.35.35h16.77c3.47,0,6.29-1.07,8.47-3.22Z"/>
        <path class="cls-1" d="M657.05,219.05h-32.47c-.24,0-.35.12-.35.35v21.8c0,.23.12.35.35.35h22.77c.59,0,.88.29.88.88v3.71c0,.59-.3.88-.88.88h-22.77c-.24,0-.35.12-.35.35v22.15c0,.24.12.35.35.35h32.47c.59,0,.88.29.88.88v3.7c0,.59-.3.88-.88.88h-38.21c-.59,0-.88-.29-.88-.88v-60.01c0-.59.29-.88.88-.88h38.21c.59,0,.88.29.88.88v3.7c0,.59-.3.88-.88.88Z"/>
        <path class="cls-1" d="M730.12,274.74l-12.97-27.36c-.06-.18-.18-.26-.35-.26h-15c-.24,0-.35.12-.35.35v27c0,.59-.29.88-.88.88h-4.5c-.59,0-.88-.29-.88-.88v-60.01c0-.59.29-.88.88-.88h22.86c5.06,0,9.15,1.57,12.27,4.72,3.12,3.15,4.68,7.25,4.68,12.31,0,4.12-1.12,7.62-3.35,10.5-2.24,2.88-5.27,4.74-9.09,5.56-.24.12-.3.26-.18.44l13.24,27.18c.06.12.09.26.09.44,0,.41-.23.62-.7.62h-4.68c-.53,0-.88-.2-1.06-.62ZM701.44,219.41v22.33c0,.23.12.35.35.35h16.41c3.41,0,6.18-1.06,8.29-3.18,2.12-2.12,3.18-4.88,3.18-8.29s-1.06-6.19-3.18-8.34c-2.12-2.15-4.88-3.22-8.29-3.22h-16.41c-.24,0-.35.12-.35.35Z"/>
        <path class="cls-1" d="M811.04,214.47v3.79c0,.59-.29.88-.88.88h-17.3c-.23,0-.35.12-.35.35v54.98c0,.59-.29.88-.88.88h-4.5c-.59,0-.88-.29-.88-.88v-54.98c0-.23-.12-.35-.35-.35h-16.59c-.59,0-.88-.29-.88-.88v-3.79c0-.59.29-.88.88-.88h40.86c.59,0,.88.29.88.88Z"/>
        <path class="cls-1" d="M846.96,274.47v-60.01c0-.59.29-.88.88-.88h4.5c.59,0,.88.29.88.88v60.01c0,.59-.29.88-.88.88h-4.5c-.59,0-.88-.29-.88-.88Z"/>
        <path class="cls-1" d="M932.73,219.05h-32.47c-.24,0-.35.12-.35.35v21.8c0,.23.12.35.35.35h22.77c.59,0,.88.29.88.88v3.71c0,.59-.3.88-.88.88h-22.77c-.24,0-.35.12-.35.35v22.15c0,.24.12.35.35.35h32.47c.59,0,.88.29.88.88v3.7c0,.59-.3.88-.88.88h-38.21c-.59,0-.88-.29-.88-.88v-60.01c0-.59.29-.88.88-.88h38.21c.59,0,.88.29.88.88v3.7c0,.59-.3.88-.88.88Z"/>
        <path class="cls-1" d="M972.93,271.56c-3.85-3-5.78-7-5.78-12v-2.74c0-.59.29-.88.88-.88h4.32c.59,0,.88.29.88.88v2.38c0,3.41,1.41,6.16,4.24,8.25,2.82,2.09,6.73,3.13,11.74,3.13,4.53,0,7.97-.95,10.32-2.87s3.53-4.46,3.53-7.63c0-2.06-.55-3.82-1.63-5.3-1.09-1.47-2.77-2.85-5.03-4.15-2.26-1.29-5.46-2.79-9.57-4.5-4.41-1.77-7.84-3.31-10.28-4.63-2.44-1.32-4.41-3.03-5.91-5.12-1.5-2.09-2.25-4.72-2.25-7.9,0-4.94,1.72-8.78,5.16-11.51,3.44-2.74,8.16-4.1,14.16-4.1,6.53,0,11.68,1.53,15.44,4.59,3.76,3.06,5.65,7.12,5.65,12.18v1.94c0,.59-.3.88-.88.88h-4.41c-.59,0-.88-.29-.88-.88v-1.59c0-3.41-1.34-6.21-4.02-8.38-2.68-2.18-6.4-3.26-11.16-3.26-4.18,0-7.38.85-9.62,2.56-2.24,1.71-3.35,4.18-3.35,7.41,0,2.12.54,3.87,1.63,5.25,1.09,1.38,2.65,2.59,4.68,3.62,2.03,1.03,5.16,2.37,9.4,4.01,4.29,1.76,7.75,3.41,10.37,4.94,2.62,1.53,4.74,3.4,6.35,5.6,1.62,2.21,2.43,4.9,2.43,8.08,0,4.94-1.82,8.88-5.47,11.83-3.65,2.94-8.71,4.41-15.18,4.41s-11.9-1.5-15.75-4.5Z"/>
        <g>
          <path class="cls-1" d="M309.58,187.9c-.63-.62-.93-1.38-.93-2.26V5.33c0-.89.31-1.64.93-2.27.62-.62,1.38-.93,2.27-.93h45.61c15.29,0,27.51,4.62,36.67,13.87,9.16,9.25,13.74,21.6,13.74,37.07v84.82c0,15.47-4.58,27.83-13.74,37.07-9.16,9.25-21.39,13.87-36.67,13.87h-45.61c-.89,0-1.65-.31-2.27-.93ZM340.93,162.17l16-.27c5.87,0,10.62-2.35,14.27-7.07,3.64-4.71,5.56-10.98,5.74-18.8V54.95c0-8-1.83-14.36-5.47-19.07-3.65-4.71-8.58-7.07-14.8-7.07h-15.74c-.89,0-1.33.44-1.33,1.33v130.69c0,.89.44,1.33,1.33,1.33Z"/>
          <path class="cls-1" d="M525.63,27.87c-.62.62-1.38.93-2.27.93h-57.61c-.89,0-1.33.44-1.33,1.33v50.41c0,.89.44,1.33,1.33,1.33h34.14c.89,0,1.64.31,2.27.93.62.62.93,1.38.93,2.27v20.53c0,.89-.31,1.65-.93,2.27-.63.62-1.38.93-2.27.93h-34.14c-.89,0-1.33.44-1.33,1.33v50.68c0,.89.44,1.33,1.33,1.33h57.61c.89,0,1.64.31,2.27.93.62.63.93,1.38.93,2.27v20.27c0,.89-.31,1.64-.93,2.26-.62.62-1.38.93-2.27.93h-86.69c-.89,0-1.65-.31-2.27-.93-.63-.62-.93-1.38-.93-2.26V5.33c0-.89.31-1.64.93-2.27.62-.62,1.38-.93,2.27-.93h86.69c.89,0,1.64.31,2.27.93.62.63.93,1.38.93,2.27v20.27c0,.89-.31,1.65-.93,2.27Z"/>
          <path class="cls-1" d="M580.71,185.9L542.57,5.6l-.27-1.07c0-1.6.98-2.4,2.93-2.4h26.94c2.13,0,3.29.98,3.47,2.93l22.14,128.29c.17.53.44.8.8.8s.62-.27.8-.8l21.6-128.29c.18-1.95,1.33-2.93,3.47-2.93h26.14c2.31,0,3.2,1.16,2.67,3.46l-38.41,180.31c-.36,1.96-1.51,2.93-3.47,2.93h-27.21c-1.96,0-3.11-.98-3.47-2.93Z"/>
          <path class="cls-1" d="M773.15,3.06c.62.63.93,1.38.93,2.27v20.27c0,.89-.31,1.65-.93,2.27-.63.62-1.38.93-2.27.93h-33.87c-.89,0-1.33.44-1.33,1.33v155.5c0,.89-.31,1.64-.93,2.26-.62.62-1.38.93-2.27.93h-24.54c-.89,0-1.65-.31-2.27-.93-.63-.62-.93-1.38-.93-2.26V30.14c0-.89-.44-1.33-1.33-1.33h-32.01c-.89,0-1.65-.31-2.27-.93-.63-.62-.93-1.38-.93-2.27V5.33c0-.89.31-1.64.93-2.27.62-.62,1.38-.93,2.27-.93h99.49c.89,0,1.64.31,2.27.93Z"/>
          <path class="cls-1" d="M887.84,27.87c-.62.62-1.38.93-2.27.93h-57.61c-.89,0-1.33.44-1.33,1.33v50.41c0,.89.44,1.33,1.33,1.33h34.14c.89,0,1.64.31,2.27.93.62.62.93,1.38.93,2.27v20.53c0,.89-.31,1.65-.93,2.27-.63.62-1.38.93-2.27.93h-34.14c-.89,0-1.33.44-1.33,1.33v50.68c0,.89.44,1.33,1.33,1.33h57.61c.89,0,1.64.31,2.27.93.62.63.93,1.38.93,2.27v20.27c0,.89-.31,1.64-.93,2.26-.62.62-1.38.93-2.27.93h-86.69c-.89,0-1.65-.31-2.27-.93-.63-.62-.93-1.38-.93-2.26V5.33c0-.89.31-1.64.93-2.27.62-.62,1.38-.93,2.27-.93h86.69c.89,0,1.64.31,2.27.93.62.63.93,1.38.93,2.27v20.27c0,.89-.31,1.65-.93,2.27Z"/>
          <path class="cls-1" d="M922.25,177.23c-9.16-9.16-13.74-21.29-13.74-36.41V49.87c0-15.29,4.58-27.43,13.74-36.41,9.16-8.98,21.29-13.47,36.41-13.47s27.56,4.49,36.81,13.47c9.24,8.98,13.87,21.12,13.87,36.41v3.2c0,.89-.31,1.69-.93,2.4-.63.71-1.38,1.07-2.27,1.07l-24.81,1.07c-2.13,0-3.2-1.07-3.2-3.2v-6.67c0-6.22-1.78-11.29-5.33-15.2-3.56-3.91-8.27-5.87-14.14-5.87s-10.32,1.96-13.87,5.87c-3.56,3.91-5.33,8.98-5.33,15.2v95.49c0,6.23,1.78,11.29,5.33,15.2,3.55,3.92,8.18,5.87,13.87,5.87s10.58-1.95,14.14-5.87c3.56-3.91,5.33-8.98,5.33-15.2v-6.67c0-.89.31-1.64.93-2.27.62-.62,1.38-.93,2.27-.93l24.81,1.07c.89,0,1.64.31,2.27.93.62.62.93,1.38.93,2.26v3.2c0,15.12-4.63,27.25-13.87,36.41-9.25,9.16-21.52,13.74-36.81,13.74s-27.25-4.58-36.41-13.74Z"/>
        </g>
      </g>
      <g>
        <rect class="cls-1" width="17.21" height="275.36"/>
        <rect class="cls-1" x="34.42" width="17.21" height="275.36"/>
        <rect class="cls-1" x="68.84" width="17.21" height="275.36"/>
        <rect class="cls-1" x="103.26" width="17.21" height="275.36"/>
        <rect class="cls-1" x="137.68" y="172.1" width="17.21" height="103.26"/>
        <rect class="cls-1" x="172.1" y="172.1" width="17.21" height="103.26"/>
        <rect class="cls-1" x="206.52" y="172.1" width="17.21" height="103.26"/>
        <rect class="cls-1" x="240.94" y="172.1" width="17.21" height="103.26"/>
        <rect class="cls-1" x="189.3" y="-51.63" width="17.21" height="120.47" transform="translate(206.51 -189.3) rotate(90)"/>
        <rect class="cls-1" x="189.3" y="-17.21" width="17.21" height="120.47" transform="translate(240.93 -154.89) rotate(90)"/>
        <rect class="cls-1" x="189.3" y="17.21" width="17.21" height="120.47" transform="translate(275.35 -120.47) rotate(90)"/>
        <rect class="cls-1" x="189.3" y="51.63" width="17.21" height="120.47" transform="translate(309.77 -86.05) rotate(90)"/>
        <rect class="cls-1" x="189.3" y="86.05" width="17.21" height="120.47" transform="translate(344.19 -51.63) rotate(90)"/>
      </g>
    </g>
  </g>
</svg>