<?xml version="1.0" encoding="UTF-8"?>
<svg id="Layer_2" data-name="Layer 2" xmlns="http://www.w3.org/2000/svg" viewBox="0 0 1439.69 400.68">
  <defs>
    <style>
      .cls-1 {
        fill: #d2ee00;
      }
    </style>
  </defs>
  <g id="Layer_1-2" data-name="Layer 1">
    <g>
      <path d="M172.47,250.38h107.7v23.77h-39.13v123.06h-29.45v-123.06h-39.13v-23.77Z"/>
      <path d="M296.99,250.38h29.45v146.83h-29.45v-146.83Z"/>
      <path d="M479.58,324c0,44.38-30.5,73.2-77.41,73.2h-51.33v-146.83h51.33c46.91,0,77.41,29.03,77.41,73.63ZM401.12,372.17c30.92,0,48.38-17.67,48.38-48.17s-17.46-48.8-48.38-48.8h-20.83v96.98h20.83Z"/>
      <path d="M484.84,250.38h33.24l31.55,67.1,31.34-67.1h32.82l-49.64,95.71v51.12h-29.45v-51.12l-49.86-95.71Z"/>
    </g>
    <g>
      <path d="M672.36,400.68c-5.76,0-10.64-1.03-14.64-3.08-4-2.05-7.44-4.74-10.32-8.08l8.54-8.27c2.3,2.67,4.88,4.7,7.73,6.1,2.85,1.4,6,2.1,9.46,2.1,3.9,0,6.85-.84,8.83-2.52,1.98-1.68,2.98-3.95,2.98-6.81,0-2.22-.64-4.03-1.92-5.43-1.28-1.4-3.68-2.41-7.2-3.05l-6.34-.95c-13.38-2.12-20.06-8.62-20.06-19.51,0-3.01.56-5.73,1.68-8.17,1.12-2.43,2.74-4.52,4.85-6.25,2.11-1.73,4.66-3.06,7.63-3.99,2.98-.93,6.35-1.39,10.13-1.39,5.05,0,9.47.83,13.25,2.5,3.78,1.67,7.01,4.14,9.7,7.41l-8.64,8.18c-1.67-2.03-3.68-3.68-6.05-4.95-2.37-1.27-5.34-1.9-8.93-1.9s-6.38.68-8.21,2.05c-1.82,1.37-2.74,3.28-2.74,5.76s.74,4.41,2.21,5.62c1.47,1.21,3.84,2.09,7.1,2.66l6.24,1.15c6.78,1.22,11.79,3.38,15.02,6.49,3.23,3.11,4.85,7.45,4.85,13.02,0,3.2-.56,6.1-1.68,8.7-1.12,2.59-2.75,4.84-4.9,6.73-2.15,1.89-4.77,3.35-7.87,4.37-3.11,1.02-6.67,1.54-10.7,1.54Z"/>
      <path d="M770.09,400.68c-4.42,0-8.42-.74-12-2.21-3.58-1.47-6.64-3.68-9.17-6.62-2.53-2.94-4.5-6.56-5.9-10.85-1.41-4.29-2.11-9.28-2.11-14.98s.7-10.61,2.11-14.93c1.41-4.32,3.38-7.95,5.9-10.9,2.53-2.94,5.58-5.15,9.17-6.62,3.58-1.47,7.58-2.21,12-2.21s8.42.74,12,2.21c3.58,1.47,6.66,3.68,9.22,6.62,2.56,2.94,4.53,6.58,5.9,10.9,1.38,4.32,2.06,9.3,2.06,14.93s-.69,10.69-2.06,14.98c-1.38,4.29-3.34,7.91-5.9,10.85-2.56,2.94-5.63,5.15-9.22,6.62-3.58,1.47-7.58,2.21-12,2.21ZM770.09,389.45c4.8,0,8.62-1.6,11.47-4.8,2.85-3.2,4.27-7.68,4.27-13.44v-10.37c0-5.76-1.42-10.24-4.27-13.44-2.85-3.2-6.67-4.8-11.47-4.8s-8.62,1.6-11.47,4.8c-2.85,3.2-4.27,7.68-4.27,13.44v10.37c0,5.76,1.42,10.24,4.27,13.44,2.85,3.2,6.67,4.8,11.47,4.8Z"/>
      <path d="M845.74,399.53v-67.01h12.67v55.78h26.4v11.23h-39.07Z"/>
      <path d="M938.28,332.52v41.18c0,5.25,1.01,9.18,3.02,11.81,2.02,2.62,5.42,3.94,10.22,3.94s8.21-1.31,10.22-3.94c2.02-2.62,3.02-6.56,3.02-11.81v-41.18h12.48v39.55c0,4.93-.46,9.18-1.39,12.77-.93,3.59-2.42,6.56-4.46,8.93-2.05,2.37-4.72,4.11-8.02,5.23-3.3,1.12-7.28,1.68-11.95,1.68s-8.72-.56-11.95-1.68c-3.23-1.12-5.87-2.86-7.92-5.23-2.05-2.37-3.52-5.34-4.42-8.93-.9-3.58-1.34-7.84-1.34-12.77v-39.55h12.48Z"/>
      <path d="M1052.43,343.75v55.78h-12.67v-55.78h-19.01v-11.23h50.69v11.23h-19.01Z"/>
      <path d="M1112.14,399.53v-10.18h8.83v-46.66h-8.83v-10.18h30.43v10.18h-8.93v46.66h8.93v10.18h-30.43Z"/>
      <path d="M1215.43,400.68c-4.42,0-8.42-.74-12-2.21-3.58-1.47-6.64-3.68-9.17-6.62-2.53-2.94-4.5-6.56-5.9-10.85-1.41-4.29-2.11-9.28-2.11-14.98s.7-10.61,2.11-14.93c1.41-4.32,3.38-7.95,5.9-10.9,2.53-2.94,5.58-5.15,9.17-6.62,3.58-1.47,7.58-2.21,12-2.21s8.42.74,12,2.21c3.58,1.47,6.66,3.68,9.22,6.62,2.56,2.94,4.53,6.58,5.9,10.9,1.38,4.32,2.06,9.3,2.06,14.93s-.69,10.69-2.06,14.98c-1.38,4.29-3.34,7.91-5.9,10.85-2.56,2.94-5.63,5.15-9.22,6.62-3.58,1.47-7.58,2.21-12,2.21ZM1215.43,389.45c4.8,0,8.62-1.6,11.47-4.8,2.85-3.2,4.27-7.68,4.27-13.44v-10.37c0-5.76-1.42-10.24-4.27-13.44-2.85-3.2-6.67-4.8-11.47-4.8s-8.62,1.6-11.47,4.8c-2.85,3.2-4.27,7.68-4.27,13.44v10.37c0,5.76,1.42,10.24,4.27,13.44,2.85,3.2,6.67,4.8,11.47,4.8Z"/>
      <path d="M1310.28,365.16l-6.91-13.92h-.29v48.29h-12v-67.01h13.92l20.16,34.37,6.91,13.92h.29v-48.29h12v67.01h-13.92l-20.16-34.37Z"/>
      <path d="M1414.54,400.68c-5.76,0-10.64-1.03-14.64-3.08-4-2.05-7.44-4.74-10.32-8.08l8.54-8.27c2.3,2.67,4.88,4.7,7.73,6.1,2.85,1.4,6,2.1,9.46,2.1,3.9,0,6.85-.84,8.83-2.52,1.98-1.68,2.98-3.95,2.98-6.81,0-2.22-.64-4.03-1.92-5.43-1.28-1.4-3.68-2.41-7.2-3.05l-6.34-.95c-13.38-2.12-20.06-8.62-20.06-19.51,0-3.01.56-5.73,1.68-8.17,1.12-2.43,2.74-4.52,4.85-6.25,2.11-1.73,4.66-3.06,7.63-3.99,2.98-.93,6.35-1.39,10.13-1.39,5.05,0,9.47.83,13.25,2.5,3.78,1.67,7.01,4.14,9.7,7.41l-8.64,8.18c-1.67-2.03-3.68-3.68-6.05-4.95-2.37-1.27-5.34-1.9-8.93-1.9s-6.38.68-8.21,2.05c-1.82,1.37-2.74,3.28-2.74,5.76s.74,4.41,2.21,5.62c1.47,1.21,3.84,2.09,7.1,2.66l6.24,1.15c6.78,1.22,11.79,3.38,15.02,6.49,3.23,3.11,4.85,7.45,4.85,13.02,0,3.2-.56,6.1-1.68,8.7-1.12,2.59-2.75,4.84-4.9,6.73-2.15,1.89-4.77,3.35-7.87,4.37-3.11,1.02-6.67,1.54-10.7,1.54Z"/>
    </g>
    <path class="cls-1" d="M91.5,397.05v-119.92s-45.44,0-45.44,0c-21.21,0-39.09-13.79-44.49-34.3-5.4-20.52,3.39-41.31,21.86-51.75L347.01,8.25c20.25-11.44,45.12-10.96,64.91,1.26l290.46,179.3c7.05,4.35,9.24,13.59,4.88,20.64-4.35,7.05-13.59,9.24-20.64,4.88L396.16,35.04c-10.48-6.47-23.66-6.73-34.39-.67L38.19,217.19c-9.97,5.63-8.34,15.2-7.6,18,.74,2.8,4.03,11.93,15.48,11.93h56.77c10.31,0,18.67,8.36,18.67,18.67v131.68l-30-.42Z"/>
  </g>
</svg>