<?xml version="1.0" encoding="UTF-8"?>
<svg id="Layer_2" data-name="Layer 2" xmlns="http://www.w3.org/2000/svg" viewBox="0 0 955.13 712.12">
  <defs>
    <style>
      .cls-1 {
        fill: #fff;
      }

      .cls-2 {
        fill: #fefefe;
      }

      .cls-3 {
        fill: #ddfd01;
      }
    </style>
  </defs>
  <g id="Layer_1-2" data-name="Layer 1">
    <g>
      <g>
        <path class="cls-1" d="M207.52,599.25c-3.83,0-7.07-.68-9.73-2.04-2.66-1.36-4.95-3.15-6.86-5.37l5.68-5.5c1.53,1.77,3.24,3.12,5.14,4.05s3.99,1.39,6.29,1.39c2.59,0,4.55-.56,5.87-1.68,1.32-1.12,1.98-2.63,1.98-4.53,0-1.48-.43-2.68-1.28-3.61-.85-.93-2.45-1.6-4.79-2.03l-4.21-.63c-8.89-1.41-13.34-5.73-13.34-12.97,0-2,.37-3.81,1.12-5.43.74-1.62,1.82-3,3.22-4.15,1.4-1.15,3.1-2.03,5.07-2.65,1.98-.62,4.22-.93,6.73-.93,3.36,0,6.3.55,8.81,1.66,2.51,1.11,4.66,2.75,6.45,4.92l-5.74,5.44c-1.11-1.35-2.45-2.45-4.02-3.29-1.58-.84-3.55-1.27-5.94-1.27s-4.25.45-5.46,1.36c-1.21.91-1.82,2.18-1.82,3.83s.49,2.93,1.47,3.73c.98.8,2.55,1.39,4.72,1.77l4.15.77c4.51.81,7.84,2.25,9.99,4.31,2.15,2.07,3.22,4.95,3.22,8.66,0,2.13-.37,4.06-1.12,5.78-.75,1.72-1.83,3.22-3.25,4.47-1.43,1.26-3.17,2.23-5.23,2.91-2.06.68-4.44,1.02-7.12,1.02Z"/>
        <path class="cls-1" d="M298.27,599.25c-2.94,0-5.59-.49-7.98-1.47-2.38-.98-4.42-2.45-6.1-4.4s-2.99-4.36-3.92-7.21c-.94-2.85-1.4-6.17-1.4-9.96s.47-7.05,1.4-9.92c.94-2.87,2.24-5.29,3.92-7.24,1.68-1.96,3.71-3.42,6.1-4.4,2.38-.98,5.04-1.47,7.98-1.47s5.59.49,7.98,1.47c2.38.98,4.42,2.45,6.13,4.4,1.7,1.96,3.01,4.37,3.93,7.24.91,2.87,1.37,6.18,1.37,9.92s-.46,7.11-1.37,9.96c-.92,2.85-2.22,5.26-3.93,7.21-1.7,1.96-3.74,3.42-6.13,4.4-2.38.98-5.04,1.47-7.98,1.47ZM298.27,591.78c3.19,0,5.73-1.06,7.63-3.19,1.89-2.13,2.84-5.11,2.84-8.94v-6.89c0-3.83-.95-6.81-2.84-8.94-1.89-2.13-4.44-3.19-7.63-3.19s-5.73,1.06-7.63,3.19c-1.89,2.13-2.84,5.11-2.84,8.94v6.89c0,3.83.95,6.81,2.84,8.94,1.89,2.13,4.44,3.19,7.63,3.19Z"/>
        <path class="cls-1" d="M374.35,598.49v-44.55h8.42v37.08h17.55v7.47h-25.98Z"/>
        <path class="cls-1" d="M461.66,553.94v27.38c0,3.49.67,6.11,2.01,7.85,1.34,1.75,3.61,2.62,6.8,2.62s5.46-.87,6.8-2.62c1.34-1.74,2.01-4.36,2.01-7.85v-27.38h8.3v26.29c0,3.28-.31,6.11-.93,8.49-.62,2.38-1.61,4.36-2.97,5.94-1.36,1.57-3.14,2.73-5.33,3.48-2.19.74-4.84,1.12-7.95,1.12s-5.8-.37-7.95-1.12c-2.15-.74-3.9-1.9-5.26-3.48-1.36-1.57-2.34-3.55-2.94-5.94-.6-2.38-.89-5.21-.89-8.49v-26.29h8.3Z"/>
        <path class="cls-1" d="M563.33,561.4v37.08h-8.42v-37.08h-12.64v-7.47h33.7v7.47h-12.64Z"/>
        <path class="cls-1" d="M628.82,598.49v-6.77h5.87v-31.02h-5.87v-6.76h20.23v6.76h-5.94v31.02h5.94v6.77h-20.23Z"/>
        <path class="cls-1" d="M723.28,599.25c-2.94,0-5.59-.49-7.98-1.47-2.38-.98-4.42-2.45-6.1-4.4s-2.99-4.36-3.92-7.21c-.94-2.85-1.4-6.17-1.4-9.96s.47-7.05,1.4-9.92c.94-2.87,2.24-5.29,3.92-7.24,1.68-1.96,3.71-3.42,6.1-4.4,2.38-.98,5.04-1.47,7.98-1.47s5.59.49,7.98,1.47c2.38.98,4.42,2.45,6.13,4.4,1.7,1.96,3.01,4.37,3.93,7.24.91,2.87,1.37,6.18,1.37,9.92s-.46,7.11-1.37,9.96c-.92,2.85-2.22,5.26-3.93,7.21-1.7,1.96-3.74,3.42-6.13,4.4-2.38.98-5.04,1.47-7.98,1.47ZM723.28,591.78c3.19,0,5.73-1.06,7.63-3.19,1.89-2.13,2.84-5.11,2.84-8.94v-6.89c0-3.83-.95-6.81-2.84-8.94-1.89-2.13-4.44-3.19-7.63-3.19s-5.73,1.06-7.63,3.19c-1.89,2.13-2.84,5.11-2.84,8.94v6.89c0,3.83.95,6.81,2.84,8.94,1.89,2.13,4.44,3.19,7.63,3.19Z"/>
        <path class="cls-1" d="M812.12,575.64l-4.6-9.25h-.19v32.1h-7.98v-44.55h9.25l13.4,22.85,4.59,9.25h.19v-32.1h7.98v44.55h-9.25l-13.4-22.85Z"/>
        <path class="cls-1" d="M907.22,599.25c-3.83,0-7.07-.68-9.73-2.04-2.66-1.36-4.95-3.15-6.86-5.37l5.68-5.5c1.53,1.77,3.24,3.12,5.14,4.05s3.99,1.39,6.29,1.39c2.59,0,4.55-.56,5.87-1.68,1.32-1.12,1.98-2.63,1.98-4.53,0-1.48-.43-2.68-1.28-3.61-.85-.93-2.45-1.6-4.79-2.03l-4.21-.63c-8.89-1.41-13.34-5.73-13.34-12.97,0-2,.37-3.81,1.12-5.43.74-1.62,1.82-3,3.22-4.15,1.4-1.15,3.1-2.03,5.07-2.65,1.98-.62,4.22-.93,6.73-.93,3.36,0,6.3.55,8.81,1.66,2.51,1.11,4.66,2.75,6.45,4.92l-5.74,5.44c-1.11-1.35-2.45-2.45-4.02-3.29-1.58-.84-3.55-1.27-5.94-1.27s-4.25.45-5.46,1.36c-1.21.91-1.82,2.18-1.82,3.83s.49,2.93,1.47,3.73c.98.8,2.55,1.39,4.72,1.77l4.15.77c4.51.81,7.84,2.25,9.99,4.31,2.15,2.07,3.22,4.95,3.22,8.66,0,2.13-.37,4.06-1.12,5.78-.75,1.72-1.83,3.22-3.25,4.47-1.43,1.26-3.17,2.23-5.23,2.91-2.06.68-4.44,1.02-7.12,1.02Z"/>
      </g>
      <g>
        <path class="cls-2" d="M190.92,354.72h107.7v23.77h-39.13v123.06h-29.45v-123.06h-39.13v-23.77Z"/>
        <path class="cls-2" d="M315.45,354.72h29.45v146.83h-29.45v-146.83Z"/>
        <path class="cls-2" d="M498.04,428.34c0,44.38-30.5,73.2-77.41,73.2h-51.33v-146.83h51.33c46.91,0,77.41,29.03,77.41,73.63ZM419.58,476.52c30.92,0,48.38-17.67,48.38-48.17s-17.46-48.8-48.38-48.8h-20.83v96.98h20.83Z"/>
        <path class="cls-2" d="M503.3,354.72h33.24l31.55,67.1,31.34-67.1h32.82l-49.64,95.71v51.12h-29.45v-51.12l-49.86-95.71Z"/>
      </g>
      <path class="cls-3" d="M955.13,712.12H168.14c-40.96,0-74.16-33.2-74.16-74.16v-250s-.02-.05-.05-.05h-39.07c-22.23,0-42.65-13.18-50.91-33.82s-2.81-45.52,14.61-60.7L333.71,18.83l.13-.11C348.27,6.54,366.59-.1,385.5,0c18.88.11,37.15,6.96,51.45,19.29l202.58,174.84c8.99,7.76,9.99,21.33,2.23,30.32-7.76,8.99-21.33,9.99-30.32,2.23L408.85,51.85c-13.6-11.73-33.41-11.88-47.17-.36L46.8,325.82c-5.14,4.47-3.84,9.9-3.04,12.03.8,2.12,3.38,7.07,10.2,7.07h59.74c12.86,0,23.28,10.42,23.28,23.28v269.77c0,17.21,13.95,31.16,31.16,31.16h786.43s.56,43,.56,43Z"/>
    </g>
  </g>
</svg>